<svg width="24" height="24" viewBox="0 0 24 24" fill="none" xmlns="http://www.w3.org/2000/svg">
<path d="M13.0088 2.99757V10.9754H16.9775C16.7131 7.83047 15.2418 4.98556 13.0088 2.99757Z" fill="#F2F2F2"/>
<path d="M16.9775 13.0222H13.0088V21C15.2418 19.012 16.7131 16.1671 16.9775 13.0222Z" fill="#F2F2F2"/>
<path d="M14.0955 23.0002C16.8609 20.6074 18.7245 17.076 18.9947 13.0222H23.0002C22.5543 18.0197 18.8719 22.0699 14.0955 23.0002Z" fill="#F2F2F2"/>
<path d="M18.9947 10.9754C18.7246 6.92309 16.8623 3.39276 14.0985 1C18.8728 1.93119 22.5534 5.97987 23 10.9754H18.9947Z" fill="#F2F2F2"/>
<path d="M1.00018 10.9754C1.44672 5.98016 5.12694 1.93166 9.90083 1.00016C7.13717 3.39291 5.27489 6.92318 5.00478 10.9754H1.00018Z" fill="#F2F2F2"/>
<path d="M10.9906 2.99762C8.75764 4.98561 7.28644 7.8305 7.02199 10.9754H10.9906V2.99762Z" fill="#F2F2F2"/>
<path d="M1 13.0222H5.00478C5.27499 17.0759 7.13849 20.6072 9.90379 23C5.12782 22.0695 1.44585 18.0194 1 13.0222Z" fill="#F2F2F2"/>
<path d="M7.02199 13.0222C7.28644 16.1671 8.75765 19.012 10.9906 21V13.0222H7.02199Z" fill="#F2F2F2"/>
</svg>
