<svg width="16" height="16" viewBox="0 0 16 16" fill="none" xmlns="http://www.w3.org/2000/svg">
<path fill-rule="evenodd" clip-rule="evenodd" d="M12.0263 1.50122C12.6414 1.00326 13.5243 0.845555 14.3253 1.24579C15.7412 1.95996 15.9117 3.89411 14.6473 4.83865L12.2214 6.64724C11.9885 8.75412 10.1971 10.3936 8.01969 10.3936C5.84511 10.3936 4.05581 8.7582 3.81914 6.65524L1.35646 4.81913C0.0926259 3.87513 0.261933 1.94081 1.67853 1.22628C2.48922 0.821129 3.38328 0.988698 3.99913 1.50122H12.0263ZM1.95107 4.02952L3.76955 5.39165V3.1214C3.76955 2.2819 2.88429 1.73118 2.12451 2.10969C1.36848 2.49133 1.26797 3.52702 1.95107 4.02952ZM12.2487 5.40027L14.0527 4.04901C14.735 3.54716 14.6363 2.51139 13.8793 2.12917C13.1456 1.76388 12.3358 2.26357 12.2487 3.00356V5.40027ZM8.82326 11.2664C8.56018 11.2917 8.29076 11.3044 8.01792 11.3044C7.74507 11.3044 7.47565 11.2917 7.2126 11.2664C7.14153 11.2596 7.07815 11.2922 7.07815 11.3365V12.2315H7.06521C6.5462 12.2315 6.12543 12.6506 6.12543 13.1675H9.88454C9.88454 12.655 9.47061 12.2398 8.95771 12.2327V11.3365C8.95771 11.2922 8.89433 11.2596 8.82326 11.2664ZM10.8243 14.1279H5.18562C4.9261 14.1279 4.71573 14.3375 4.71573 14.5959V15.532C4.71573 15.7905 4.9261 16 5.18562 16H10.8243C11.0838 16 11.2942 15.7905 11.2942 15.532V14.5959C11.2942 14.3375 11.0838 14.1279 10.8243 14.1279Z" fill="#B2B2B2"/>
</svg>
