<svg width="16" height="16" viewBox="0 0 16 16" fill="none" xmlns="http://www.w3.org/2000/svg">
<path fill-rule="evenodd" clip-rule="evenodd" d="M8 16C12.4183 16 16 12.4183 16 8C16 3.58172 12.4183 0 8 0C3.58172 0 0 3.58172 0 8C0 12.4183 3.58172 16 8 16ZM12.961 5.59035H4.4564C4.4564 5.21443 4.60907 4.8539 4.88083 4.58808C5.15259 4.32226 5.52118 4.17291 5.9055 4.17291H12.961V5.59035ZM4.45638 5.59034H3.03894V7.00778H4.45638V5.59034ZM11.5436 10.4096H12.961C12.96 9.50064 12.5994 8.65595 11.9584 8.01319C11.3174 7.37043 10.4484 7.00886 9.54189 7.00779H4.4564C4.4564 7.39036 4.60795 7.75726 4.87773 8.02778C5.1475 8.2983 5.49232 8.42523 5.87384 8.42523H9.55918C10.0843 8.4257 10.5705 8.66016 10.9419 9.03253C11.3132 9.4049 11.5431 9.88304 11.5436 10.4096ZM10.0945 11.8271H3.03894V10.4097H11.5436C11.5436 10.5958 11.5061 10.7802 11.4333 10.9522C11.3604 11.1242 11.2537 11.2805 11.1191 11.4121C10.9846 11.5437 10.8248 11.6481 10.649 11.7193C10.4732 11.7905 10.2847 11.8272 10.0945 11.8271Z" fill="#BFF800"/>
</svg>
