<svg width="24" height="24" viewBox="0 0 24 24" fill="none" xmlns="http://www.w3.org/2000/svg">
<path d="M12 22.5C17.799 22.5 22.5 17.799 22.5 12C22.5 6.20101 17.799 1.5 12 1.5C6.20101 1.5 1.5 6.20101 1.5 12C1.5 17.799 6.20101 22.5 12 22.5Z" fill="url(#paint0_linear_3359_2753)"/>
<path d="M19.5169 12.1279H17.6658C17.6658 8.35571 14.5972 5.29788 10.8115 5.29788C7.07274 5.29788 4.03306 8.28085 3.95867 11.9885C3.8817 15.821 7.49008 19.149 11.3367 19.149H11.8206C15.2118 19.149 19.7571 16.5036 20.4673 13.2805C20.5984 12.6864 20.1275 12.1279 19.5169 12.1279ZM8.06082 12.296C8.06082 12.8004 7.64676 13.213 7.14052 13.213C6.63427 13.213 6.22024 12.8002 6.22024 12.296V10.8125C6.22024 10.308 6.63427 9.89544 7.14052 9.89544C7.64676 9.89544 8.06082 10.308 8.06082 10.8125V12.296ZM11.2564 12.296C11.2564 12.8004 10.8424 13.213 10.3362 13.213C9.82989 13.213 9.41588 12.8002 9.41588 12.296V10.8125C9.41588 10.308 9.83007 9.89544 10.3362 9.89544C10.8424 9.89544 11.2564 10.308 11.2564 10.8125V12.296Z" fill="url(#paint1_linear_3359_2753)"/>
<defs>
<linearGradient id="paint0_linear_3359_2753" x1="12" y1="1.5" x2="12" y2="22.5" gradientUnits="userSpaceOnUse">
<stop stop-color="#534BB1"/>
<stop offset="1" stop-color="#551BF9"/>
</linearGradient>
<linearGradient id="paint1_linear_3359_2753" x1="12.2234" y1="5.29788" x2="12.2234" y2="19.149" gradientUnits="userSpaceOnUse">
<stop stop-color="white"/>
<stop offset="1" stop-color="white" stop-opacity="0.82"/>
</linearGradient>
</defs>
</svg>
