<svg width="20" height="22" viewBox="0 0 20 22" fill="none" xmlns="http://www.w3.org/2000/svg">
<path d="M16.6667 0.5L1.31673 3.77803C0.545898 3.94274 0 4.60906 0 5.38729V19.8529C0 20.7629 0.745833 21.5 1.66667 21.5H20V16.5588H15.4167C14.6083 16.5588 13.8837 16.2373 13.3545 15.7144C12.8253 15.1914 12.5 14.4753 12.5 13.6765C12.5 12.0829 13.8042 10.7941 15.4167 10.7941H20V5.85294H2.5V5.02941L16.6667 3.74506V0.5ZM15.8333 12.4412C15.5018 12.4412 15.1839 12.5713 14.9495 12.803C14.715 13.0346 14.5833 13.3489 14.5833 13.6765C14.5833 14.0041 14.715 14.3183 14.9495 14.55C15.1839 14.7816 15.5018 14.9118 15.8333 14.9118C16.1649 14.9118 16.4828 14.7816 16.7172 14.55C16.9516 14.3183 17.0833 14.0041 17.0833 13.6765C17.0833 13.3489 16.9516 13.0346 16.7172 12.803C16.4828 12.5713 16.1649 12.4412 15.8333 12.4412Z" fill="white"/>
</svg>
