<svg width="48" height="48" viewBox="0 0 48 48" fill="none" xmlns="http://www.w3.org/2000/svg">
<path fill-rule="evenodd" clip-rule="evenodd" d="M13.0316 6.28131C13.6961 5.90623 14.5039 5.90623 15.1684 6.28131L25.0684 11.8695C25.7668 12.2637 26.2 13.0118 26.2 13.8235V17.4578L21.8 19.9706V15.1388L14.1 10.7924L6.4 15.1388V23.6848L14.1 28.0312L32.8316 17.4578C33.4961 17.0827 34.3039 17.0827 34.9684 17.4578L44.8684 23.046C45.5668 23.4402 46 24.1883 46 25V36.1765C46 36.9882 45.5668 37.7363 44.8684 38.1305L34.9684 43.7187C34.3039 44.0938 33.4961 44.0938 32.8316 43.7187L22.9316 38.1305C22.2332 37.7363 21.8 36.9882 21.8 36.1765V32.5422L26.2 30.0294V34.8612L33.9 39.2076L41.6 34.8612V26.3152L33.9 21.9688L15.1684 32.5422C14.5039 32.9173 13.6961 32.9173 13.0316 32.5422L3.13157 26.954C2.43318 26.5598 2 25.8117 2 25V13.8235C2 13.0118 2.43318 12.2637 3.13157 11.8695L13.0316 6.28131Z" fill="#7342DC"/>
</svg>
