<svg width="12" height="16" viewBox="0 0 12 16" fill="none" xmlns="http://www.w3.org/2000/svg">
<path fill-rule="evenodd" clip-rule="evenodd" d="M8.79998 8.03345C9.99997 6.96233 10.4 4.55229 10.4 4.4184C11.3333 5.8912 12 7.63178 12 9.97487C12 13.3221 9.33331 16 5.99998 16C2.66666 16 0 13.3221 0 9.97487C0 9.0135 0.613762 7.85842 1.30166 6.56383C1.95501 5.33424 2.67524 3.9788 2.99999 2.54393C2.99999 2.54393 3.93332 3.54811 3.99999 5.22174C5.33332 3.81589 5.99998 0 5.99998 0C5.99998 0 10.4 2.87865 8.79998 8.03345ZM5.99953 14.5117C6.95213 14.5117 7.68058 13.8747 7.68058 13.0418C7.68058 12.2088 5.99953 7.60239 5.99953 7.60239C5.99953 7.60239 4.31849 12.2088 4.31849 13.0418C4.31849 13.8747 5.04694 14.5117 5.99953 14.5117Z" fill="#EB5757"/>
</svg>
