<svg width="16" height="18" viewBox="0 0 16 18" fill="none" xmlns="http://www.w3.org/2000/svg">
<path d="M12.9862 1.35331C10.9728 -0.0836519 9.53985 -0.0523911 8.99557 0.0340975C8.92095 0.0467538 8.84964 0.0738122 8.78577 0.113702C8.7219 0.153592 8.66675 0.205519 8.62351 0.26647L3.7123 6.90837L1.30665 10.1626C1.01244 10.5607 0.841886 11.0337 0.815527 11.5246L0.500869 17.3849C0.495505 17.4822 0.515037 17.5791 0.557685 17.6671C0.600334 17.755 0.664744 17.831 0.745048 17.8883C0.825353 17.9456 0.919 17.9823 1.01746 17.995C1.11592 18.0077 1.21607 17.9961 1.30877 17.9612L6.89608 15.8667C7.36701 15.6896 7.77627 15.3822 8.0718 14.982L10.032 12.3301L15.3855 5.08899C15.4323 5.02617 15.4658 4.95482 15.484 4.87912C15.5023 4.80342 15.5049 4.72492 15.4918 4.64821C15.4025 4.1001 14.9741 2.77047 12.9862 1.35331ZM6.91309 14.6955L4.74131 15.5176C4.70032 15.5334 4.65518 15.5357 4.61277 15.524C4.57036 15.5124 4.533 15.4874 4.50638 15.453C4.18056 15.0428 3.79561 14.6813 3.36362 14.3797C2.93768 14.0705 2.46871 13.8228 1.97105 13.6441C1.9297 13.6293 1.89433 13.6019 1.87019 13.5658C1.84606 13.5298 1.83445 13.487 1.8371 13.444L1.96679 11.1661L2.5504 10.3794C2.5504 10.3794 3.85687 10.2033 5.56197 11.4193C7.26495 12.6343 7.49776 13.9077 7.49776 13.9077L6.91309 14.6955Z" fill="#F2F2F2"/>
</svg>
