<svg width="16" height="16" viewBox="0 0 16 16" fill="none" xmlns="http://www.w3.org/2000/svg">
<path fill-rule="evenodd" clip-rule="evenodd" d="M8.00001 7.25C9.24265 7.25 10.25 5.49642 10.25 4.25243C10.25 3.00845 9.24265 2 8.00001 2C6.75736 2 5.75001 3.00845 5.75001 4.25243C5.75001 5.49642 6.75736 7.25 8.00001 7.25ZM5.75 7.99999H6.15033C6.69612 8.4594 7.32732 8.75 7.99989 8.75C8.67245 8.75 9.30366 8.4594 9.84944 7.99999H10.25C11.4926 7.99999 12.5 9.00735 12.5 10.25V10.8342C12.5 11.5653 12.2516 12.296 11.6739 12.744C10.6588 13.5313 9.38411 14 8 14C6.61589 14 5.34124 13.5313 4.32609 12.744C3.74837 12.296 3.5 11.5653 3.5 10.8342V10.25C3.5 9.00735 4.50736 7.99999 5.75 7.99999Z" fill="#262626"/>
</svg>
